<?xml version="1.0" standalone="no"?>
<!DOCTYPE svg PUBLIC "-//W3C//DTD SVG 20010904//EN"
 "http://www.w3.org/TR/2001/REC-SVG-20010904/DTD/svg10.dtd">
<svg version="1.0" xmlns="http://www.w3.org/2000/svg"
 width="500.000000pt" height="500.000000pt" viewBox="0 0 500.000000 500.000000"
 preserveAspectRatio="xMidYMid meet">

<g transform="translate(0.000000,500.000000) scale(0.100000,-0.100000)"
fill="#000000" stroke="none">
<path d="M0 2500 l0 -2500 2500 0 2500 0 0 2500 0 2500 -2500 0 -2500 0 0
-2500z m2570 351 c0 -55 2 -61 29 -77 39 -23 61 -64 61 -114 0 -34 -6 -48 -32
-73 l-33 -32 43 -41 c38 -37 42 -45 42 -88 0 -63 -24 -112 -72 -143 -34 -23
-38 -30 -38 -69 l0 -44 -735 0 -735 0 0 370 0 370 735 0 735 0 0 -59z m740
-116 l0 -104 24 24 c46 46 161 47 221 1 52 -40 78 -98 79 -176 2 -156 -89
-250 -232 -238 -42 4 -60 10 -74 28 -18 22 -18 22 -18 1 0 -19 -6 -21 -65 -21
l-65 0 0 295 0 295 65 0 65 0 0 -105z m-478 -209 c3 -174 12 -196 73 -196 74
0 94 50 95 238 l0 112 60 0 60 0 0 -215 0 -215 -60 0 -60 0 0 33 -1 32 -22
-26 c-31 -37 -59 -49 -114 -49 -56 0 -108 24 -137 63 -19 25 -21 46 -24 203
l-4 174 65 0 65 0 4 -154z m-1406 -430 c3 -9 19 -12 49 -10 39 3 44 1 51 -24
l7 -27 10 26 c8 21 17 26 48 27 25 1 39 -3 39 -11 0 -9 2 -9 9 1 14 22 65 11
69 -15 2 -12 10 -24 19 -27 23 -9 31 4 10 15 -9 6 -17 17 -17 24 0 17 36 20
46 4 4 -8 -1 -9 -17 -4 l-24 6 24 -19 c29 -23 20 -44 -17 -41 -51 4 -72 -1
-72 -17 0 -8 -4 -12 -10 -9 -5 3 -10 15 -10 26 0 16 -3 17 -19 8 -27 -18 -51
-4 -51 28 l-1 28 -14 -32 c-8 -18 -18 -33 -23 -33 -5 0 -14 15 -20 33 -5 17
-10 24 -11 15 -1 -12 -9 -18 -27 -18 -15 0 -23 -4 -19 -10 4 -6 16 -8 27 -4
14 4 18 2 14 -5 -10 -16 -44 -13 -54 5 -8 14 -10 14 -21 0 -8 -9 -24 -16 -37
-16 -22 0 -24 4 -24 45 0 43 1 45 30 45 17 0 33 -6 36 -14z"/>
<path d="M3339 2571 c-27 -27 -29 -35 -29 -101 0 -102 24 -139 90 -140 43 0
78 22 91 59 16 39 12 125 -5 160 -31 60 -99 70 -147 22z"/>
<path d="M1370 2065 c0 -32 3 -36 23 -33 17 2 22 10 22 33 0 23 -5 31 -22 33
-20 3 -23 -1 -23 -33z"/>
<path d="M1455 2070 c-3 -5 3 -10 15 -10 12 0 18 5 15 10 -3 6 -10 10 -15 10
-5 0 -12 -4 -15 -10z"/>
<path d="M1584 2065 c-7 -18 3 -35 22 -35 8 0 14 10 14 25 0 27 -27 35 -36 10z"/>
<path d="M1660 2055 c0 -20 4 -26 18 -23 9 2 17 12 17 23 0 11 -8 21 -17 23
-14 3 -18 -3 -18 -23z"/>
</g>
</svg>
